<?xml version="1.0" standalone="no"?>
<!DOCTYPE svg PUBLIC "-//W3C//DTD SVG 20010904//EN"
 "http://www.w3.org/TR/2001/REC-SVG-20010904/DTD/svg10.dtd">
<svg version="1.0" xmlns="http://www.w3.org/2000/svg"
 width="512.000000pt" height="512.000000pt" viewBox="0 0 512.000000 512.000000"
 preserveAspectRatio="xMidYMid meet">
<metadata>
Created by potrace 1.14, written by Peter Selinger 2001-2017
</metadata>
<g transform="translate(0.000000,512.000000) scale(0.100000,-0.100000)"
fill="#000000" stroke="none">
<path d="M2412 5105 c-29 -8 -76 -28 -105 -44 -29 -16 -97 -52 -152 -81 -55
-29 -134 -71 -175 -93 -41 -22 -113 -60 -160 -85 -47 -24 -116 -61 -155 -82
-38 -20 -115 -61 -170 -90 -55 -29 -131 -69 -170 -90 -38 -21 -110 -59 -160
-85 -103 -54 -169 -90 -380 -202 -82 -44 -208 -111 -280 -148 -72 -38 -165
-88 -209 -112 -43 -24 -80 -43 -82 -43 -3 0 -23 -12 -47 -27 -59 -39 -103 -89
-135 -153 l-27 -55 0 -1155 0 -1155 27 -55 c49 -101 89 -132 333 -260 55 -29
123 -65 150 -80 28 -15 113 -60 190 -100 77 -40 145 -76 150 -80 6 -4 69 -38
140 -75 72 -37 153 -80 180 -95 28 -15 95 -51 150 -80 222 -117 293 -154 350
-185 33 -18 110 -58 170 -90 61 -32 124 -66 140 -75 17 -10 89 -48 160 -85 72
-37 153 -80 180 -95 93 -51 204 -61 303 -26 22 8 220 106 439 217 828 420
1049 532 1428 724 215 109 413 210 440 226 93 52 156 137 175 236 8 41 10 384
8 1173 l-3 1115 -24 48 c-13 26 -43 69 -67 96 -47 52 -28 41 -589 326 -644
327 -1022 519 -1400 710 -214 109 -403 202 -420 207 -56 16 -149 18 -203 3z
m401 -434 c281 -143 628 -319 1442 -731 209 -106 382 -194 384 -196 2 -1 -181
-95 -406 -208 l-410 -204 -79 42 c-43 23 -137 73 -209 110 -71 38 -143 76
-160 86 -16 9 -93 50 -170 90 -77 40 -207 109 -290 153 -82 44 -206 109 -275
144 -69 36 -143 76 -165 88 -22 12 -107 57 -190 100 -82 43 -154 81 -160 85
-5 4 -77 42 -160 85 -182 96 -209 111 -198 118 15 9 115 63 368 197 138 73
274 146 304 161 30 16 60 29 68 29 8 0 145 -67 306 -149z m-1183 -518 c41 -22
120 -64 175 -93 55 -29 132 -69 170 -90 39 -20 120 -63 180 -95 61 -32 133
-70 160 -85 28 -15 113 -60 190 -100 77 -40 154 -81 170 -90 17 -10 98 -52
180 -95 83 -43 155 -81 160 -85 6 -4 78 -42 160 -85 83 -43 165 -86 183 -96
17 -10 55 -30 83 -45 l51 -26 -493 -245 -493 -245 -61 31 c-33 16 -123 63
-200 104 -77 40 -221 115 -320 166 -99 52 -193 101 -210 111 -16 10 -115 61
-220 115 -104 54 -217 112 -250 130 -33 18 -132 70 -220 115 -88 46 -191 100
-230 120 -38 21 -119 62 -180 93 -60 31 -118 62 -128 69 -20 15 -33 7 223 141
63 34 252 134 419 223 l305 162 60 -33 c34 -18 95 -50 136 -72z m-1055 -808
c72 -37 180 -93 240 -125 61 -32 173 -90 250 -130 77 -40 185 -96 240 -125
121 -63 280 -147 475 -248 80 -41 208 -108 285 -149 77 -40 174 -90 215 -112
l75 -38 0 -1019 c0 -691 -3 -1019 -10 -1019 -6 0 -19 6 -30 13 -11 8 -87 49
-170 92 -82 43 -154 81 -160 85 -5 4 -82 44 -170 90 -88 46 -164 86 -170 90
-5 4 -68 38 -140 75 -71 37 -152 80 -180 95 -27 15 -95 51 -150 80 -55 29
-131 69 -170 90 -38 20 -119 63 -180 95 -60 32 -132 70 -160 85 -27 15 -95 51
-150 80 -173 92 -190 101 -203 118 -9 12 -12 232 -12 1019 l0 1003 73 -39 c39
-21 130 -69 202 -106z m4245 -854 c0 -550 -3 -1006 -6 -1015 -3 -9 -52 -39
-108 -67 -55 -28 -245 -125 -421 -214 -176 -89 -522 -265 -770 -390 -247 -125
-541 -274 -653 -331 -112 -57 -204 -104 -205 -104 -2 0 -3 460 -3 1023 l0
1022 485 242 c267 133 489 242 492 243 4 0 7 -122 7 -270 1 -302 5 -322 68
-361 80 -49 193 -14 222 71 5 14 10 180 10 369 0 188 1 344 3 346 8 6 864 434
872 434 4 1 7 -449 7 -998z"/>
</g>
</svg>
